<svg xmlns="http://www.w3.org/2000/svg" xmlns:xlink="http://www.w3.org/1999/xlink" width="512" zoomAndPan="magnify" viewBox="0 0 384 383.999986" height="512" preserveAspectRatio="xMidYMid meet" version="1.0"><path fill="#000000" d="M 207.6875 0.167969 C 240.042969 7.511719 287.089844 15.3125 292.597656 14.625 C 296.496094 13.9375 311.414062 10.722656 325.871094 7.28125 C 360.753906 -1.210938 368.554688 -0.980469 376.816406 8.199219 C 380.261719 12.101562 383.242188 17.835938 383.242188 21.050781 C 383.242188 27.246094 378.652344 49.964844 371.769531 78.191406 L 367.179688 96.78125 L 375.210938 135.5625 C 379.570312 156.90625 383.242188 176.640625 383.242188 179.625 C 383.242188 182.378906 380.488281 188.117188 377.046875 192.019531 C 371.082031 199.359375 370.621094 199.359375 355.933594 197.984375 C 347.671875 197.066406 336.65625 195.917969 331.609375 195.230469 C 322.429688 194.082031 322.429688 194.082031 306.824219 212.671875 C 289.613281 233.097656 269.875 248.703125 248.761719 258.800781 C 241.191406 262.472656 234.078125 266.144531 233.386719 267.058594 C 231.09375 269.355469 243.257812 281.519531 247.847656 281.519531 C 249.910156 281.519531 261.386719 271.878906 273.320312 260.175781 C 285.253906 248.472656 298.5625 236.996094 303.382812 234.933594 C 313.707031 230.113281 328.625 229.882812 338.492188 234.703125 C 348.589844 239.292969 380.261719 272.339844 382.097656 279.910156 C 384.390625 288.402344 377.503906 299.417969 363.964844 308.367188 C 343.542969 322.136719 319.675781 324.433594 298.792969 314.792969 C 291.90625 311.582031 285.480469 309.054688 284.335938 309.054688 C 283.417969 309.054688 277.449219 312.039062 271.484375 315.941406 C 263.222656 321.21875 258.171875 322.824219 248.992188 322.824219 C 235.222656 322.824219 227.421875 318.925781 209.0625 302.628906 C 195.0625 290.46875 191.164062 288.632812 186.574219 293.222656 C 183.128906 296.664062 184.964844 301.253906 195.292969 313.875 C 200.113281 319.613281 205.160156 327.1875 206.539062 330.628906 C 218.011719 360.691406 186.34375 396.949219 166.378906 376.753906 C 159.722656 370.328125 159.265625 362.757812 164.542969 351.511719 L 168.441406 343.019531 L 155.59375 330.628906 C 148.476562 323.742188 141.132812 318.234375 139.296875 318.234375 C 134.480469 318.234375 121.167969 333.839844 122.085938 338.429688 C 122.546875 340.496094 124.839844 342.5625 127.363281 343.019531 C 139.070312 344.625 142.511719 346.234375 148.019531 352.199219 C 155.59375 360.230469 155.363281 368.722656 147.332031 376.296875 C 138.839844 384.558594 129.429688 385.933594 114.054688 381.574219 C 90.875 374.917969 76.878906 352.199219 81.46875 329.25 C 82.15625 325.121094 88.121094 314.105469 94.320312 304.925781 C 100.746094 295.746094 105.5625 286.566406 105.105469 284.273438 C 103.726562 277.15625 93.628906 278.304688 82.617188 286.796875 C 61.503906 302.628906 50.257812 306.074219 33.503906 301.253906 C 13.539062 295.289062 0 276.929688 0 255.355469 C 0 233.554688 20.195312 223 33.046875 238.144531 C 36.257812 242.046875 39.242188 246.636719 39.242188 248.472656 C 39.472656 250.308594 39.929688 252.601562 40.160156 253.980469 C 40.390625 255.128906 40.847656 257.191406 41.078125 258.570312 C 41.539062 263.386719 52.09375 260.632812 58.289062 254.207031 C 67.011719 245.257812 65.402344 239.292969 50.488281 225.523438 L 39.011719 214.738281 L 30.0625 219.554688 C 19.277344 224.835938 9.410156 222.769531 3.671875 213.820312 C -2.292969 204.640625 -0.917969 196.835938 8.71875 187.429688 C 27.308594 168.839844 55.078125 171.136719 75.5 192.9375 C 81.699219 199.589844 87.664062 200.507812 91.792969 195.460938 C 95.007812 191.558594 94.320312 190.183594 79.171875 172.511719 C 72.519531 164.9375 65.402344 155.300781 63.109375 150.941406 C 57.140625 139.234375 59.4375 123.171875 68.847656 110.089844 L 76.1875 99.535156 L 70.910156 88.976562 C 67.011719 81.40625 65.175781 73.375 64.714844 60.523438 C 63.796875 44.226562 64.484375 41.246094 70.910156 27.933594 C 79.859375 10.035156 89.042969 1.542969 100.285156 1.542969 C 107.398438 1.542969 110.84375 3.839844 126.675781 19.214844 C 148.25 40.097656 152.148438 46.753906 152.148438 62.359375 C 152.378906 78.421875 147.332031 86.453125 122.546875 111.007812 C 110.613281 122.714844 100.972656 133.039062 115.433594 150.710938 C 117.039062 150.710938 120.023438 146.121094 122.316406 140.382812 C 131.726562 117.433594 153.066406 91.042969 179.917969 69.011719 L 191.164062 59.832031 L 187.03125 38.492188 C 182.902344 17.609375 182.902344 17.378906 187.492188 11.183594 C 190.015625 7.738281 194.605469 3.609375 197.589844 2.003906 C 200.570312 0.394531 205.160156 -0.292969 207.6875 0.167969 Z M 174.414062 232.484375 C 168.28125 232.484375 163.308594 237.457031 163.308594 243.589844 C 163.308594 249.722656 168.28125 254.695312 174.414062 254.695312 C 180.550781 254.695312 185.519531 249.722656 185.519531 243.589844 C 185.519531 237.457031 180.550781 232.484375 174.414062 232.484375 Z M 139.777344 197.835938 C 133.644531 197.835938 128.671875 202.808594 128.671875 208.941406 C 128.671875 215.078125 133.644531 220.050781 139.777344 220.050781 C 145.914062 220.050781 150.886719 215.078125 150.886719 208.941406 C 150.886719 202.808594 145.914062 197.835938 139.777344 197.835938 Z M 139.777344 197.835938 " fill-opacity="1" fill-rule="nonzero"/></svg>