<svg xmlns="http://www.w3.org/2000/svg" xmlns:xlink="http://www.w3.org/1999/xlink" width="512" zoomAndPan="magnify" viewBox="0 0 384 383.999986" height="512" preserveAspectRatio="xMidYMid meet" version="1.0"><defs><clipPath id="41c96b8d4a"><path d="M 0 144.019531 L 48 144.019531 L 48 240.019531 L 0 240.019531 Z M 0 144.019531 " clip-rule="nonzero"/></clipPath><clipPath id="015696b1f2"><path d="M 144.019531 336.019531 L 240 336.019531 L 240 384 L 144.019531 384 Z M 144.019531 336.019531 " clip-rule="nonzero"/></clipPath><clipPath id="c6d2b31766"><path d="M 336.019531 144.019531 L 384 144.019531 L 384 240.019531 L 336.019531 240.019531 Z M 336.019531 144.019531 " clip-rule="nonzero"/></clipPath><clipPath id="2dd768b1fe"><path d="M 144.019531 0 L 240 0 L 240 48.019531 L 144.019531 48.019531 Z M 144.019531 0 " clip-rule="nonzero"/></clipPath></defs><g clip-path="url(#41c96b8d4a)"><path fill="#52dad8" d="M 3.964844 144.058594 C 12.050781 145.894531 23.8125 147.847656 25.191406 147.675781 C 26.164062 147.503906 29.894531 146.699219 33.507812 145.839844 C 42.230469 143.714844 44.179688 143.773438 46.246094 146.066406 C 47.105469 147.042969 47.851562 148.476562 47.851562 149.28125 C 47.851562 150.832031 46.703125 156.511719 44.984375 163.566406 L 43.835938 168.214844 L 45.84375 177.910156 C 46.933594 183.246094 47.851562 188.179688 47.851562 188.925781 C 47.851562 189.613281 47.164062 191.046875 46.304688 192.023438 C 44.8125 193.859375 44.695312 193.859375 41.023438 193.515625 C 38.960938 193.285156 36.207031 193 34.945312 192.828125 C 32.648438 192.539062 32.648438 192.539062 28.746094 197.1875 C 24.445312 202.292969 19.511719 206.195312 14.234375 208.71875 C 12.339844 209.636719 10.5625 210.554688 10.390625 210.785156 C 9.816406 211.355469 12.855469 214.398438 14.003906 214.398438 C 14.519531 214.398438 17.386719 211.988281 20.371094 209.0625 C 23.355469 206.136719 26.683594 203.269531 27.886719 202.75 C 30.46875 201.546875 34.199219 201.488281 36.664062 202.695312 C 39.1875 203.839844 47.105469 212.101562 47.566406 213.996094 C 48.140625 216.117188 46.417969 218.871094 43.03125 221.109375 C 37.925781 224.550781 31.960938 225.125 26.738281 222.71875 C 25.019531 221.914062 23.410156 221.28125 23.125 221.28125 C 22.894531 221.28125 21.402344 222.027344 19.914062 223.003906 C 17.847656 224.324219 16.585938 224.726562 14.289062 224.726562 C 10.847656 224.726562 8.898438 223.75 4.308594 219.675781 C 0.808594 216.636719 -0.167969 216.175781 -1.316406 217.324219 C -2.175781 218.183594 -1.714844 219.332031 0.863281 222.488281 C 2.070312 223.921875 3.332031 225.816406 3.675781 226.675781 C 6.542969 234.191406 -1.371094 243.257812 -6.363281 238.207031 C -8.027344 236.601562 -8.140625 234.707031 -6.824219 231.894531 L -5.847656 229.773438 L -9.058594 226.675781 C -10.839844 224.953125 -12.675781 223.578125 -13.132812 223.578125 C -14.339844 223.578125 -17.667969 227.480469 -17.4375 228.625 C -17.320312 229.140625 -16.75 229.660156 -16.117188 229.773438 C -13.191406 230.175781 -12.332031 230.578125 -10.953125 232.070312 C -9.058594 234.078125 -9.117188 236.199219 -11.125 238.09375 C -13.25 240.15625 -15.601562 240.503906 -19.445312 239.414062 C -25.238281 237.75 -28.738281 232.070312 -27.589844 226.332031 C -27.417969 225.296875 -25.925781 222.542969 -24.378906 220.25 C -22.773438 217.953125 -21.566406 215.660156 -21.683594 215.085938 C -22.027344 213.308594 -24.550781 213.59375 -27.304688 215.71875 C -32.582031 219.675781 -35.394531 220.535156 -39.582031 219.332031 C -44.574219 217.839844 -47.957031 213.25 -47.957031 207.859375 C -47.957031 202.40625 -42.910156 199.769531 -39.695312 203.554688 C -38.894531 204.53125 -38.148438 205.675781 -38.148438 206.136719 C -38.089844 206.59375 -37.976562 207.167969 -37.917969 207.511719 C -37.859375 207.800781 -37.746094 208.316406 -37.6875 208.660156 C -37.574219 209.867188 -34.933594 209.175781 -33.386719 207.570312 C -31.207031 205.332031 -31.609375 203.839844 -35.335938 200.398438 L -38.207031 197.703125 L -40.441406 198.90625 C -43.140625 200.226562 -45.605469 199.710938 -47.039062 197.472656 C -48.53125 195.179688 -48.1875 193.226562 -45.777344 190.875 C -41.132812 186.230469 -34.1875 186.800781 -29.082031 192.253906 C -27.535156 193.917969 -26.042969 194.144531 -25.011719 192.882812 C -24.207031 191.910156 -24.378906 191.5625 -28.164062 187.148438 C -29.828125 185.253906 -31.609375 182.84375 -32.179688 181.753906 C -33.671875 178.828125 -33.097656 174.8125 -30.746094 171.542969 L -28.910156 168.902344 L -30.230469 166.261719 C -31.207031 164.371094 -31.664062 162.363281 -31.78125 159.148438 C -32.007812 155.074219 -31.835938 154.328125 -30.230469 151.003906 C -27.992188 146.527344 -25.699219 144.40625 -22.886719 144.40625 C -21.109375 144.40625 -20.246094 144.976562 -16.289062 148.820312 C -10.894531 154.042969 -9.921875 155.707031 -9.921875 159.609375 C -9.863281 163.625 -11.125 165.632812 -17.320312 171.769531 C -20.304688 174.695312 -22.714844 177.277344 -19.101562 181.695312 C -18.699219 181.695312 -17.953125 180.546875 -17.378906 179.113281 C -15.027344 173.378906 -9.691406 166.78125 -2.980469 161.273438 L -0.167969 158.976562 L -1.199219 153.640625 C -2.234375 148.421875 -2.234375 148.363281 -1.085938 146.8125 C -0.453125 145.953125 0.691406 144.921875 1.4375 144.519531 C 2.183594 144.117188 3.332031 143.945312 3.964844 144.058594 Z M -4.355469 202.140625 C -5.886719 202.140625 -7.132812 203.382812 -7.132812 204.917969 C -7.132812 206.449219 -5.886719 207.691406 -4.355469 207.691406 C -2.820312 207.691406 -1.578125 206.449219 -1.578125 204.917969 C -1.578125 203.382812 -2.820312 202.140625 -4.355469 202.140625 Z M -13.011719 193.476562 C -14.546875 193.476562 -15.789062 194.722656 -15.789062 196.253906 C -15.789062 197.789062 -14.546875 199.03125 -13.011719 199.03125 C -11.480469 199.03125 -10.238281 197.789062 -10.238281 196.253906 C -10.238281 194.722656 -11.480469 193.476562 -13.011719 193.476562 Z M -13.011719 193.476562 " fill-opacity="1" fill-rule="nonzero"/></g><g clip-path="url(#015696b1f2)"><path fill="#52dad8" d="M 195.941406 336.058594 C 204.027344 337.894531 215.789062 339.847656 217.167969 339.675781 C 218.144531 339.503906 221.871094 338.699219 225.488281 337.839844 C 234.207031 335.714844 236.15625 335.773438 238.222656 338.066406 C 239.082031 339.042969 239.828125 340.476562 239.828125 341.28125 C 239.828125 342.832031 238.683594 348.511719 236.960938 355.566406 L 235.8125 360.214844 L 237.820312 369.910156 C 238.910156 375.246094 239.828125 380.179688 239.828125 380.925781 C 239.828125 381.613281 239.140625 383.046875 238.28125 384.023438 C 236.789062 385.859375 236.675781 385.859375 233.003906 385.515625 C 230.9375 385.285156 228.183594 385 226.921875 384.828125 C 224.625 384.539062 224.625 384.539062 220.722656 389.1875 C 216.421875 394.292969 211.488281 398.195312 206.210938 400.71875 C 204.316406 401.636719 202.539062 402.554688 202.367188 402.785156 C 201.792969 403.355469 204.832031 406.398438 205.980469 406.398438 C 206.496094 406.398438 209.363281 403.988281 212.347656 401.0625 C 215.332031 398.136719 218.660156 395.269531 219.863281 394.75 C 222.445312 393.546875 226.175781 393.488281 228.640625 394.695312 C 231.167969 395.839844 239.082031 404.101562 239.542969 405.996094 C 240.117188 408.117188 238.394531 410.871094 235.011719 413.109375 C 229.902344 416.550781 223.9375 417.125 218.714844 414.71875 C 216.996094 413.914062 215.390625 413.28125 215.101562 413.28125 C 214.871094 413.28125 213.382812 414.027344 211.890625 415.003906 C 209.824219 416.324219 208.5625 416.726562 206.265625 416.726562 C 202.824219 416.726562 200.875 415.75 196.285156 411.675781 C 192.785156 408.636719 191.808594 408.175781 190.660156 409.324219 C 189.800781 410.183594 190.261719 411.332031 192.84375 414.488281 C 194.046875 415.921875 195.308594 417.816406 195.652344 418.675781 C 198.523438 426.191406 190.605469 435.257812 185.613281 430.207031 C 183.949219 428.601562 183.835938 426.707031 185.152344 423.894531 L 186.128906 421.773438 L 182.917969 418.675781 C 181.136719 416.953125 179.300781 415.578125 178.84375 415.578125 C 177.636719 415.578125 174.3125 419.480469 174.539062 420.625 C 174.65625 421.140625 175.230469 421.660156 175.859375 421.773438 C 178.785156 422.175781 179.644531 422.578125 181.023438 424.070312 C 182.917969 426.078125 182.859375 428.199219 180.851562 430.09375 C 178.726562 432.15625 176.375 432.503906 172.53125 431.414062 C 166.738281 429.75 163.238281 424.070312 164.386719 418.332031 C 164.558594 417.296875 166.050781 414.542969 167.597656 412.25 C 169.203125 409.953125 170.410156 407.660156 170.292969 407.085938 C 169.949219 405.308594 167.425781 405.59375 164.671875 407.71875 C 159.394531 411.675781 156.582031 412.535156 152.394531 411.332031 C 147.402344 409.839844 144.019531 405.25 144.019531 399.859375 C 144.019531 394.40625 149.066406 391.769531 152.28125 395.554688 C 153.082031 396.53125 153.828125 397.675781 153.828125 398.136719 C 153.886719 398.59375 154 399.167969 154.058594 399.511719 C 154.117188 399.800781 154.230469 400.316406 154.289062 400.660156 C 154.402344 401.867188 157.042969 401.175781 158.589844 399.570312 C 160.769531 397.332031 160.371094 395.839844 156.640625 392.398438 L 153.773438 389.703125 L 151.535156 390.90625 C 148.835938 392.226562 146.371094 391.710938 144.9375 389.472656 C 143.445312 387.179688 143.789062 385.226562 146.199219 382.875 C 150.847656 378.230469 157.789062 378.800781 162.894531 384.253906 C 164.441406 385.917969 165.933594 386.144531 166.96875 384.882812 C 167.769531 383.910156 167.597656 383.5625 163.8125 379.148438 C 162.148438 377.253906 160.371094 374.84375 159.796875 373.753906 C 158.304688 370.828125 158.878906 366.8125 161.230469 363.542969 L 163.066406 360.902344 L 161.746094 358.261719 C 160.769531 356.371094 160.3125 354.363281 160.199219 351.148438 C 159.96875 347.074219 160.140625 346.328125 161.746094 343.003906 C 163.984375 338.527344 166.277344 336.40625 169.089844 336.40625 C 170.867188 336.40625 171.730469 336.976562 175.6875 340.820312 C 181.082031 346.042969 182.054688 347.707031 182.054688 351.609375 C 182.113281 355.625 180.851562 357.632812 174.65625 363.769531 C 171.671875 366.695312 169.261719 369.277344 172.875 373.695312 C 173.277344 373.695312 174.023438 372.546875 174.597656 371.113281 C 176.949219 365.378906 182.285156 358.78125 188.996094 353.273438 L 191.808594 350.976562 L 190.777344 345.640625 C 189.742188 340.421875 189.742188 340.363281 190.890625 338.8125 C 191.523438 337.953125 192.667969 336.921875 193.414062 336.519531 C 194.160156 336.117188 195.308594 335.945312 195.941406 336.058594 Z M 187.621094 394.140625 C 186.089844 394.140625 184.847656 395.382812 184.847656 396.917969 C 184.847656 398.449219 186.089844 399.691406 187.621094 399.691406 C 189.15625 399.691406 190.398438 398.449219 190.398438 396.917969 C 190.398438 395.382812 189.15625 394.140625 187.621094 394.140625 Z M 178.964844 385.476562 C 177.429688 385.476562 176.1875 386.722656 176.1875 388.253906 C 176.1875 389.789062 177.429688 391.03125 178.964844 391.03125 C 180.496094 391.03125 181.738281 389.789062 181.738281 388.253906 C 181.738281 386.722656 180.496094 385.476562 178.964844 385.476562 Z M 178.964844 385.476562 " fill-opacity="1" fill-rule="nonzero"/></g><g clip-path="url(#c6d2b31766)"><path fill="#52dad8" d="M 387.941406 144.058594 C 396.027344 145.894531 407.789062 147.847656 409.167969 147.675781 C 410.144531 147.503906 413.871094 146.699219 417.488281 145.839844 C 426.207031 143.714844 428.15625 143.773438 430.222656 146.066406 C 431.082031 147.042969 431.828125 148.476562 431.828125 149.28125 C 431.828125 150.832031 430.683594 156.511719 428.960938 163.566406 L 427.8125 168.214844 L 429.820312 177.910156 C 430.910156 183.246094 431.828125 188.179688 431.828125 188.925781 C 431.828125 189.613281 431.140625 191.046875 430.28125 192.023438 C 428.789062 193.859375 428.675781 193.859375 425.003906 193.515625 C 422.9375 193.285156 420.183594 193 418.921875 192.828125 C 416.625 192.539062 416.625 192.539062 412.722656 197.1875 C 408.421875 202.292969 403.488281 206.195312 398.210938 208.71875 C 396.316406 209.636719 394.539062 210.554688 394.367188 210.785156 C 393.792969 211.355469 396.832031 214.398438 397.980469 214.398438 C 398.496094 214.398438 401.363281 211.988281 404.347656 209.0625 C 407.332031 206.136719 410.660156 203.269531 411.863281 202.75 C 414.445312 201.546875 418.175781 201.488281 420.640625 202.695312 C 423.167969 203.839844 431.082031 212.101562 431.542969 213.996094 C 432.117188 216.117188 430.394531 218.871094 427.011719 221.109375 C 421.902344 224.550781 415.9375 225.125 410.714844 222.71875 C 408.996094 221.914062 407.390625 221.28125 407.101562 221.28125 C 406.871094 221.28125 405.382812 222.027344 403.890625 223.003906 C 401.824219 224.324219 400.5625 224.726562 398.265625 224.726562 C 394.824219 224.726562 392.875 223.75 388.285156 219.675781 C 384.785156 216.636719 383.808594 216.175781 382.660156 217.324219 C 381.800781 218.183594 382.261719 219.332031 384.84375 222.488281 C 386.046875 223.921875 387.308594 225.816406 387.652344 226.675781 C 390.523438 234.191406 382.605469 243.257812 377.613281 238.207031 C 375.949219 236.601562 375.835938 234.707031 377.152344 231.894531 L 378.128906 229.773438 L 374.917969 226.675781 C 373.136719 224.953125 371.300781 223.578125 370.84375 223.578125 C 369.636719 223.578125 366.3125 227.480469 366.539062 228.625 C 366.65625 229.140625 367.230469 229.660156 367.859375 229.773438 C 370.785156 230.175781 371.644531 230.578125 373.023438 232.070312 C 374.917969 234.078125 374.859375 236.199219 372.851562 238.09375 C 370.726562 240.15625 368.375 240.503906 364.53125 239.414062 C 358.738281 237.75 355.238281 232.070312 356.386719 226.332031 C 356.558594 225.296875 358.050781 222.542969 359.597656 220.25 C 361.203125 217.953125 362.410156 215.660156 362.292969 215.085938 C 361.949219 213.308594 359.425781 213.59375 356.671875 215.71875 C 351.394531 219.675781 348.582031 220.535156 344.394531 219.332031 C 339.402344 217.839844 336.019531 213.25 336.019531 207.859375 C 336.019531 202.40625 341.066406 199.769531 344.28125 203.554688 C 345.082031 204.53125 345.828125 205.675781 345.828125 206.136719 C 345.886719 206.59375 346 207.167969 346.058594 207.511719 C 346.117188 207.800781 346.230469 208.316406 346.289062 208.660156 C 346.402344 209.867188 349.042969 209.175781 350.589844 207.570312 C 352.769531 205.332031 352.371094 203.839844 348.640625 200.398438 L 345.773438 197.703125 L 343.535156 198.90625 C 340.835938 200.226562 338.371094 199.710938 336.9375 197.472656 C 335.445312 195.179688 335.789062 193.226562 338.199219 190.875 C 342.847656 186.230469 349.789062 186.800781 354.894531 192.253906 C 356.441406 193.917969 357.933594 194.144531 358.96875 192.882812 C 359.769531 191.910156 359.597656 191.5625 355.8125 187.148438 C 354.148438 185.253906 352.371094 182.84375 351.796875 181.753906 C 350.304688 178.828125 350.878906 174.8125 353.230469 171.542969 L 355.066406 168.902344 L 353.746094 166.261719 C 352.769531 164.371094 352.3125 162.363281 352.199219 159.148438 C 351.96875 155.074219 352.140625 154.328125 353.746094 151.003906 C 355.984375 146.527344 358.277344 144.40625 361.089844 144.40625 C 362.867188 144.40625 363.730469 144.976562 367.6875 148.820312 C 373.082031 154.042969 374.054688 155.707031 374.054688 159.609375 C 374.113281 163.625 372.851562 165.632812 366.65625 171.769531 C 363.671875 174.695312 361.261719 177.277344 364.875 181.695312 C 365.277344 181.695312 366.023438 180.546875 366.597656 179.113281 C 368.949219 173.378906 374.285156 166.78125 380.996094 161.273438 L 383.808594 158.976562 L 382.777344 153.640625 C 381.742188 148.421875 381.742188 148.363281 382.890625 146.8125 C 383.523438 145.953125 384.667969 144.921875 385.414062 144.519531 C 386.160156 144.117188 387.308594 143.945312 387.941406 144.058594 Z M 379.621094 202.140625 C 378.089844 202.140625 376.847656 203.382812 376.847656 204.917969 C 376.847656 206.449219 378.089844 207.691406 379.621094 207.691406 C 381.15625 207.691406 382.398438 206.449219 382.398438 204.917969 C 382.398438 203.382812 381.15625 202.140625 379.621094 202.140625 Z M 370.964844 193.476562 C 369.429688 193.476562 368.1875 194.722656 368.1875 196.253906 C 368.1875 197.789062 369.429688 199.03125 370.964844 199.03125 C 372.496094 199.03125 373.738281 197.789062 373.738281 196.253906 C 373.738281 194.722656 372.496094 193.476562 370.964844 193.476562 Z M 370.964844 193.476562 " fill-opacity="1" fill-rule="nonzero"/></g><g clip-path="url(#2dd768b1fe)"><path fill="#52dad8" d="M 195.941406 -47.917969 C 204.027344 -46.082031 215.789062 -44.128906 217.167969 -44.300781 C 218.144531 -44.472656 221.871094 -45.277344 225.488281 -46.136719 C 234.207031 -48.261719 236.15625 -48.203125 238.222656 -45.910156 C 239.082031 -44.933594 239.828125 -43.5 239.828125 -42.695312 C 239.828125 -41.148438 238.683594 -35.46875 236.960938 -28.410156 L 235.8125 -23.761719 L 237.820312 -14.066406 C 238.910156 -8.730469 239.828125 -3.796875 239.828125 -3.050781 C 239.828125 -2.363281 239.140625 -0.929688 238.28125 0.046875 C 236.789062 1.882812 236.675781 1.882812 233.003906 1.539062 C 230.9375 1.308594 228.183594 1.019531 226.921875 0.847656 C 224.625 0.5625 224.625 0.5625 220.722656 5.210938 C 216.421875 10.316406 211.488281 14.21875 206.210938 16.742188 C 204.316406 17.660156 202.539062 18.578125 202.367188 18.808594 C 201.792969 19.378906 204.832031 22.421875 205.980469 22.421875 C 206.496094 22.421875 209.363281 20.011719 212.347656 17.085938 C 215.332031 14.160156 218.660156 11.292969 219.863281 10.773438 C 222.445312 9.570312 226.175781 9.511719 228.640625 10.71875 C 231.167969 11.863281 239.082031 20.125 239.542969 22.019531 C 240.117188 24.140625 238.394531 26.894531 235.011719 29.132812 C 229.902344 32.574219 223.9375 33.148438 218.714844 30.738281 C 216.996094 29.9375 215.390625 29.304688 215.101562 29.304688 C 214.871094 29.304688 213.382812 30.050781 211.890625 31.027344 C 209.824219 32.347656 208.5625 32.746094 206.265625 32.746094 C 202.824219 32.746094 200.875 31.773438 196.285156 27.699219 C 192.785156 24.660156 191.808594 24.199219 190.660156 25.347656 C 189.800781 26.207031 190.261719 27.355469 192.84375 30.511719 C 194.046875 31.945312 195.308594 33.839844 195.652344 34.699219 C 198.523438 42.214844 190.605469 51.277344 185.613281 46.230469 C 183.949219 44.625 183.835938 42.730469 185.152344 39.917969 L 186.128906 37.796875 L 182.917969 34.699219 C 181.136719 32.976562 179.300781 31.601562 178.84375 31.601562 C 177.636719 31.601562 174.3125 35.5 174.539062 36.648438 C 174.65625 37.164062 175.230469 37.683594 175.859375 37.796875 C 178.785156 38.199219 179.644531 38.601562 181.023438 40.089844 C 182.917969 42.097656 182.859375 44.222656 180.851562 46.117188 C 178.726562 48.179688 176.375 48.523438 172.53125 47.433594 C 166.738281 45.769531 163.238281 40.089844 164.386719 34.355469 C 164.558594 33.320312 166.050781 30.566406 167.597656 28.273438 C 169.203125 25.976562 170.410156 23.683594 170.292969 23.109375 C 169.949219 21.332031 167.425781 21.617188 164.671875 23.742188 C 159.394531 27.699219 156.582031 28.558594 152.394531 27.355469 C 147.402344 25.863281 144.019531 21.273438 144.019531 15.878906 C 144.019531 10.429688 149.066406 7.792969 152.28125 11.578125 C 153.082031 12.554688 153.828125 13.699219 153.828125 14.160156 C 153.886719 14.617188 154 15.191406 154.058594 15.535156 C 154.117188 15.824219 154.230469 16.339844 154.289062 16.683594 C 154.402344 17.890625 157.042969 17.199219 158.589844 15.59375 C 160.769531 13.355469 160.371094 11.863281 156.640625 8.421875 L 153.773438 5.726562 L 151.535156 6.929688 C 148.835938 8.25 146.371094 7.734375 144.9375 5.496094 C 143.445312 3.203125 143.789062 1.25 146.199219 -1.101562 C 150.847656 -5.75 157.789062 -5.175781 162.894531 0.277344 C 164.441406 1.9375 165.933594 2.167969 166.96875 0.90625 C 167.769531 -0.0703125 167.597656 -0.414062 163.8125 -4.832031 C 162.148438 -6.722656 160.371094 -9.132812 159.796875 -10.222656 C 158.304688 -13.148438 158.878906 -17.164062 161.230469 -20.4375 L 163.066406 -23.074219 L 161.746094 -25.714844 C 160.769531 -27.605469 160.3125 -29.613281 160.199219 -32.828125 C 159.96875 -36.902344 160.140625 -37.648438 161.746094 -40.972656 C 163.984375 -45.449219 166.277344 -47.574219 169.089844 -47.574219 C 170.867188 -47.574219 171.730469 -47 175.6875 -43.15625 C 181.082031 -37.933594 182.054688 -36.269531 182.054688 -32.367188 C 182.113281 -28.351562 180.851562 -26.34375 174.65625 -20.207031 C 171.671875 -17.28125 169.261719 -14.699219 172.875 -10.28125 C 173.277344 -10.28125 174.023438 -11.429688 174.597656 -12.863281 C 176.949219 -18.601562 182.285156 -25.199219 188.996094 -30.707031 L 191.808594 -33 L 190.777344 -38.335938 C 189.742188 -43.554688 189.742188 -43.613281 190.890625 -45.164062 C 191.523438 -46.023438 192.667969 -47.054688 193.414062 -47.457031 C 194.160156 -47.859375 195.308594 -48.03125 195.941406 -47.917969 Z M 187.621094 10.164062 C 186.089844 10.164062 184.847656 11.40625 184.847656 12.9375 C 184.847656 14.472656 186.089844 15.714844 187.621094 15.714844 C 189.15625 15.714844 190.398438 14.472656 190.398438 12.9375 C 190.398438 11.40625 189.15625 10.164062 187.621094 10.164062 Z M 178.964844 1.5 C 177.429688 1.5 176.1875 2.742188 176.1875 4.277344 C 176.1875 5.8125 177.429688 7.054688 178.964844 7.054688 C 180.496094 7.054688 181.738281 5.8125 181.738281 4.277344 C 181.738281 2.742188 180.496094 1.5 178.964844 1.5 Z M 178.964844 1.5 " fill-opacity="1" fill-rule="nonzero"/></g></svg>